<?xml version="1.0" encoding="utf-8"?>
<!-- Generator: Adobe Illustrator 25.2.3, SVG Export Plug-In . SVG Version: 6.00 Build 0)  -->
<svg version="1.1" id="Ebene_1" xmlns="http://www.w3.org/2000/svg" xmlns:xlink="http://www.w3.org/1999/xlink" x="0px" y="0px"
	 viewBox="0 0 650 200" style="enable-background:new 0 0 650 200;" xml:space="preserve">
<style type="text/css">
	.st0{enable-background:new    ;}
	.st1{fill:#52B481;}
	.st2{fill:#E5362B;}
	.st3{fill:#FEEB17;}
	.st4{fill:#E72174;}
	.st5{fill:#189CD9;}
	.st6{clip-path:url(#SVGID_2_);enable-background:new    ;}
	.st7{clip-path:url(#SVGID_4_);enable-background:new    ;}
	.st8{clip-path:url(#SVGID_6_);enable-background:new    ;}
</style>
<g>
	<g>
		<g class="st0">
			<g>
				<polygon class="st1" points="93.3,29.9 124.2,14.4 147.1,85.5 116.2,101 				"/>
			</g>
			<g>
				<path class="st1" d="M84.5,33.6l30.9-15.5c2.8-1.4,5.8-2.7,8.8-3.7L93.3,29.9C90.2,30.9,87.3,32.2,84.5,33.6z"/>
			</g>
			<g>
				<path class="st1" d="M182.6,151.8l-30.9,15.5c32.2-16.1,48.7-53.9,37.2-89.6l30.9-15.5C231.3,97.9,214.8,135.7,182.6,151.8z"/>
			</g>
			<g>
				<polygon class="st1" points="116.2,101 147.1,85.5 219.9,62.3 188.9,77.8 				"/>
			</g>
			<g>
				<path class="st1" d="M93.3,29.9l22.9,71.1l72.8-23.2c12.6,39.4-8.8,81.4-47.9,93.9c-7.5,2.4-15,3.5-22.5,3.5
					c-31.6,0-61-20.3-71.3-52.2C34.8,84.3,55.4,43.1,93.3,29.9z"/>
			</g>
		</g>
		<g class="st0">
			<g>
				<polygon class="st1" points="203.2,29.9 234.1,14.4 240.5,14.4 209.6,29.9 				"/>
			</g>
			<g>
				<polygon class="st1" points="209.6,29.9 240.5,14.4 246.9,14.4 216,29.9 				"/>
			</g>
			<g>
				<polygon class="st1" points="278.4,139.7 309.3,124.2 341.7,159.7 310.8,175.2 				"/>
			</g>
			<g>
				<polygon class="st1" points="216,29.9 246.9,14.4 277.1,14.4 246.2,29.9 				"/>
			</g>
			<g>
				<path class="st1" d="M246.2,29.9l30.9-15.5c32.7,0,59.4,26.6,59.6,59.5c0.1,21.2-10.9,39.8-27.5,50.3l-30.9,15.5
					c16.6-10.5,27.6-29.1,27.5-50.3C305.6,56.5,278.9,29.9,246.2,29.9z"/>
			</g>
			<g>
				<path class="st1" d="M246.2,29.9c32.7,0,59.4,26.6,59.6,59.5c0.1,21.2-10.9,39.8-27.5,50.3l32.4,35.5H204l-0.2-44.9l-0.4-81.8
					l-0.1-18.6h6.4h6.4H246.2z"/>
			</g>
		</g>
		<g class="st0">
			<g>
				<polygon class="st1" points="373.6,29.9 404.5,14.4 405.3,159.7 374.4,175.2 				"/>
			</g>
			<g>
				<polygon class="st1" points="329.5,29.9 360.5,14.4 404.5,14.4 373.6,29.9 				"/>
			</g>
			<g>
				<polygon class="st1" points="373.6,29.9 374.4,175.2 330.3,175.2 329.5,29.9 				"/>
			</g>
		</g>
		<g class="st0">
			<g>
				<polygon class="st1" points="440.4,114 471.3,98.5 471.6,159.7 440.7,175.2 				"/>
			</g>
			<g>
				<polygon class="st1" points="391.8,29.9 422.7,14.4 439.8,14.4 408.9,29.9 				"/>
			</g>
			<g>
				<polygon class="st1" points="460.9,75.6 491.8,60.1 492,98.5 461.1,114 				"/>
			</g>
			<g>
				<polygon class="st1" points="408.9,29.9 439.8,14.4 470.8,14.4 439.9,29.9 				"/>
			</g>
			<g>
				<polygon class="st1" points="485.8,29.9 516.7,14.4 517,60.1 486,75.6 				"/>
			</g>
			<g>
				<polygon class="st1" points="439.9,29.9 470.8,14.4 516.7,14.4 485.8,29.9 				"/>
			</g>
			<g>
				<polygon class="st1" points="485.8,29.9 486,75.6 460.9,75.6 461.1,114 440.4,114 440.7,175.2 392.6,175.2 391.8,29.9 
					408.9,29.9 439.9,29.9 				"/>
			</g>
		</g>
		<g class="st0">
			<g>
				<polygon class="st1" points="544.2,114 575.1,98.5 575.4,159.7 544.5,175.2 				"/>
			</g>
			<g>
				<polygon class="st1" points="495.6,29.9 526.5,14.4 543.5,14.4 512.6,29.9 				"/>
			</g>
			<g>
				<polygon class="st1" points="564.7,75.6 595.6,60.1 595.8,98.5 564.9,114 				"/>
			</g>
			<g>
				<polygon class="st1" points="512.6,29.9 543.5,14.4 574.7,14.4 543.7,29.9 				"/>
			</g>
			<g>
				<polygon class="st1" points="589.6,29.9 620.5,14.4 620.8,60.1 589.8,75.6 				"/>
			</g>
			<g>
				<polygon class="st1" points="543.7,29.9 574.7,14.4 620.5,14.4 589.6,29.9 				"/>
			</g>
			<g>
				<polygon class="st1" points="589.6,29.9 589.8,75.6 564.7,75.6 564.9,114 544.2,114 544.5,175.2 496.4,175.2 495.6,29.9 
					512.6,29.9 543.7,29.9 				"/>
			</g>
		</g>
	</g>
	<g>
		<g class="st0">
			<g>
				<polygon class="st2" points="89.5,31.7 114.3,19.3 137.1,90.4 112.4,102.8 				"/>
			</g>
			<g>
				<path class="st2" d="M80.7,35.5l24.7-12.4c2.8-1.4,5.8-2.7,8.9-3.7L89.5,31.7C86.4,32.8,83.5,34,80.7,35.5z"/>
			</g>
			<g>
				<path class="st2" d="M172.7,156.7L148,169.1c32.2-16.1,48.6-53.9,37.2-89.5l24.7-12.4C221.3,102.8,204.9,140.6,172.7,156.7z"/>
			</g>
			<g>
				<polygon class="st2" points="112.4,102.8 137.1,90.4 209.9,67.2 185.2,79.6 				"/>
			</g>
			<g>
				<path class="st2" d="M89.5,31.7l22.9,71.1l72.8-23.2c12.6,39.4-8.8,81.4-47.9,93.9c-7.5,2.4-15.1,3.5-22.6,3.5
					c-31.6,0-61-20.3-71.2-52.2C31,86.1,51.6,44.9,89.5,31.7z"/>
			</g>
		</g>
		<g class="st0">
			<g>
				<polygon class="st2" points="199.4,31.7 224.2,19.3 230.5,19.3 205.8,31.7 				"/>
			</g>
			<g>
				<polygon class="st2" points="205.8,31.7 230.5,19.3 236.9,19.3 212.2,31.7 				"/>
			</g>
			<g>
				<polygon class="st2" points="274.6,141.5 299.3,129.1 331.7,164.7 307,177.1 				"/>
			</g>
			<g>
				<polygon class="st2" points="212.2,31.7 236.9,19.3 267.2,19.3 242.4,31.7 				"/>
			</g>
			<g>
				<path class="st2" d="M242.4,31.7l24.7-12.4c32.7,0,59.4,26.6,59.6,59.5c0.1,21.2-10.9,39.8-27.5,50.3l-24.7,12.4
					c16.6-10.5,27.6-29.1,27.5-50.3C301.8,58.3,275.1,31.7,242.4,31.7z"/>
			</g>
			<g>
				<path class="st2" d="M242.4,31.7c32.7,0,59.4,26.6,59.6,59.5c0.1,21.2-10.9,39.8-27.5,50.3l32.4,35.5H200.2l-0.2-44.9l-0.4-81.8
					l-0.1-18.6h6.4h6.4H242.4z"/>
			</g>
		</g>
		<g class="st0">
			<g>
				<polygon class="st2" points="369.8,31.7 394.6,19.3 395.3,164.7 370.6,177.1 				"/>
			</g>
			<g>
				<polygon class="st2" points="325.8,31.7 350.5,19.3 394.6,19.3 369.8,31.7 				"/>
			</g>
			<g>
				<polygon class="st2" points="369.8,31.7 370.6,177.1 326.6,177.1 325.8,31.7 				"/>
			</g>
		</g>
		<g class="st0">
			<g>
				<polygon class="st2" points="436.6,115.9 461.3,103.5 461.7,164.7 436.9,177.1 				"/>
			</g>
			<g>
				<polygon class="st2" points="388,31.7 412.7,19.3 429.8,19.3 405.1,31.7 				"/>
			</g>
			<g>
				<polygon class="st2" points="457.1,77.4 481.8,65 482,103.5 457.3,115.9 				"/>
			</g>
			<g>
				<polygon class="st2" points="405.1,31.7 429.8,19.3 460.9,19.3 436.1,31.7 				"/>
			</g>
			<g>
				<polygon class="st2" points="482,31.7 506.7,19.3 507,65 482.3,77.4 				"/>
			</g>
			<g>
				<polygon class="st2" points="436.1,31.7 460.9,19.3 506.7,19.3 482,31.7 				"/>
			</g>
			<g>
				<polygon class="st2" points="482,31.7 482.3,77.4 457.1,77.4 457.3,115.9 436.6,115.9 436.9,177.1 388.8,177.1 388,31.7 
					405.1,31.7 436.1,31.7 				"/>
			</g>
		</g>
		<g class="st0">
			<g>
				<polygon class="st2" points="540.4,115.9 565.1,103.5 565.4,164.7 540.7,177.1 				"/>
			</g>
			<g>
				<polygon class="st2" points="491.8,31.7 516.5,19.3 533.6,19.3 508.8,31.7 				"/>
			</g>
			<g>
				<polygon class="st2" points="560.8,77.4 585.6,65 585.8,103.5 561,115.9 				"/>
			</g>
			<g>
				<polygon class="st2" points="508.8,31.7 533.6,19.3 564.6,19.3 539.9,31.7 				"/>
			</g>
			<g>
				<polygon class="st2" points="585.8,31.7 610.5,19.3 610.8,65 586.1,77.4 				"/>
			</g>
			<g>
				<polygon class="st2" points="539.9,31.7 564.6,19.3 610.5,19.3 585.8,31.7 				"/>
			</g>
			<g>
				<polygon class="st2" points="585.8,31.7 586.1,77.4 560.8,77.4 561,115.9 540.4,115.9 540.7,177.1 492.6,177.1 491.8,31.7 
					508.8,31.7 539.9,31.7 				"/>
			</g>
		</g>
	</g>
	<g>
		<g class="st0">
			<g>
				<polygon class="st3" points="74.4,39.3 105.3,23.8 128.2,94.9 97.2,110.4 				"/>
			</g>
			<g>
				<path class="st3" d="M65.5,43l30.9-15.5c2.8-1.4,5.8-2.7,8.9-3.7L74.4,39.3C71.3,40.4,68.4,41.6,65.5,43z"/>
			</g>
			<g>
				<path class="st3" d="M163.8,161.2l-30.9,15.5c32.2-16.1,48.6-53.9,37.2-89.5l30.9-15.5C212.3,107.3,195.9,145.1,163.8,161.2z"/>
			</g>
			<g>
				<polygon class="st3" points="97.2,110.4 128.2,94.9 200.9,71.7 170,87.2 				"/>
			</g>
			<g>
				<path class="st3" d="M74.4,39.3l22.9,71.1L170,87.2c12.6,39.4-8.8,81.4-47.9,93.9c-7.5,2.4-15.1,3.5-22.6,3.5
					c-31.6,0-61-20.3-71.2-52.2C15.9,93.7,36.5,52.5,74.4,39.3z"/>
			</g>
		</g>
		<g class="st0">
			<g>
				<polygon class="st3" points="184.3,39.3 215.2,23.8 221.6,23.8 190.6,39.3 				"/>
			</g>
			<g>
				<polygon class="st3" points="190.6,39.3 221.6,23.8 228,23.8 197.1,39.3 				"/>
			</g>
			<g>
				<polygon class="st3" points="259.4,149.1 290.3,133.6 322.8,169.1 291.9,184.6 				"/>
			</g>
			<g>
				<polygon class="st3" points="197.1,39.3 228,23.8 258.2,23.8 227.3,39.3 				"/>
			</g>
			<g>
				<path class="st3" d="M227.3,39.3l30.9-15.5c32.7,0,59.4,26.6,59.6,59.5c0.1,21.2-10.9,39.8-27.5,50.3l-30.9,15.5
					C276,138.6,287,120,286.9,98.8C286.7,65.9,260,39.3,227.3,39.3z"/>
			</g>
			<g>
				<path class="st3" d="M227.3,39.3c32.7,0,59.4,26.6,59.6,59.5c0.1,21.2-10.9,39.8-27.5,50.3l32.4,35.5H185.1l-0.2-44.9l-0.4-81.8
					l-0.1-18.6h6.4h6.4H227.3z"/>
			</g>
		</g>
		<g class="st0">
			<g>
				<polygon class="st3" points="354.7,39.3 385.6,23.8 386.4,169.1 355.5,184.6 				"/>
			</g>
			<g>
				<polygon class="st3" points="310.6,39.3 341.5,23.8 385.6,23.8 354.7,39.3 				"/>
			</g>
			<g>
				<polygon class="st3" points="354.7,39.3 355.5,184.6 311.4,184.6 310.6,39.3 				"/>
			</g>
		</g>
		<g class="st0">
			<g>
				<polygon class="st3" points="421.5,123.5 452.4,108 452.7,169.1 421.8,184.6 				"/>
			</g>
			<g>
				<polygon class="st3" points="372.9,39.3 403.8,23.8 420.8,23.8 389.9,39.3 				"/>
			</g>
			<g>
				<polygon class="st3" points="441.9,85 472.8,69.5 473.1,108 442.1,123.5 				"/>
			</g>
			<g>
				<polygon class="st3" points="389.9,39.3 420.8,23.8 451.9,23.8 421,39.3 				"/>
			</g>
			<g>
				<polygon class="st3" points="466.9,39.3 497.8,23.8 498,69.5 467.1,85 				"/>
			</g>
			<g>
				<polygon class="st3" points="421,39.3 451.9,23.8 497.8,23.8 466.9,39.3 				"/>
			</g>
			<g>
				<polygon class="st3" points="466.9,39.3 467.1,85 441.9,85 442.1,123.5 421.5,123.5 421.8,184.6 373.7,184.6 372.9,39.3 
					389.9,39.3 421,39.3 				"/>
			</g>
		</g>
		<g class="st0">
			<g>
				<polygon class="st3" points="525.2,123.5 556.1,108 556.5,169.1 525.6,184.6 				"/>
			</g>
			<g>
				<polygon class="st3" points="476.6,39.3 507.5,23.8 524.6,23.8 493.7,39.3 				"/>
			</g>
			<g>
				<polygon class="st3" points="545.7,85 576.6,69.5 576.8,108 545.9,123.5 				"/>
			</g>
			<g>
				<polygon class="st3" points="493.7,39.3 524.6,23.8 555.7,23.8 524.8,39.3 				"/>
			</g>
			<g>
				<polygon class="st3" points="570.6,39.3 601.5,23.8 601.8,69.5 570.9,85 				"/>
			</g>
			<g>
				<polygon class="st3" points="524.8,39.3 555.7,23.8 601.5,23.8 570.6,39.3 				"/>
			</g>
			<g>
				<polygon class="st3" points="570.6,39.3 570.9,85 545.7,85 545.9,123.5 525.2,123.5 525.6,184.6 477.4,184.6 476.6,39.3 
					493.7,39.3 524.8,39.3 				"/>
			</g>
		</g>
	</g>
	<g>
		<g class="st0">
			<g>
				<polygon class="st4" points="76.2,38.2 94.8,28.9 117.7,100 99.1,109.3 				"/>
			</g>
			<g>
				<path class="st4" d="M67.4,41.9L86,32.6c2.8-1.4,5.8-2.7,8.8-3.7l-18.5,9.3C73.2,39.2,70.2,40.5,67.4,41.9z"/>
			</g>
			<g>
				<path class="st4" d="M153.2,166.3l-18.5,9.3c32.2-16.2,48.7-53.9,37.2-89.5l18.5-9.3C201.8,112.4,185.4,150.2,153.2,166.3z"/>
			</g>
			<g>
				<polygon class="st4" points="99.1,109.3 117.7,100 190.4,76.8 171.8,86.1 				"/>
			</g>
			<g>
				<path class="st4" d="M76.2,38.2l22.9,71.2l72.7-23.2c12.7,39.3-8.8,81.3-47.9,93.9c-7.5,2.4-15,3.5-22.5,3.5
					c-31.6,0-61-20.3-71.3-52.2C17.7,92.6,38.3,51.4,76.2,38.2z"/>
			</g>
		</g>
		<g class="st0">
			<g>
				<polygon class="st4" points="186.1,38.2 204.6,28.9 211.1,28.9 192.5,38.2 				"/>
			</g>
			<g>
				<polygon class="st4" points="192.5,38.2 211.1,28.9 217.4,28.9 198.9,38.2 				"/>
			</g>
			<g>
				<polygon class="st4" points="261.3,148 279.8,138.7 312.2,174.2 293.7,183.5 				"/>
			</g>
			<g>
				<polygon class="st4" points="198.9,38.2 217.4,28.9 247.6,28.9 229.1,38.2 				"/>
			</g>
			<g>
				<path class="st4" d="M229.1,38.2l18.5-9.3c32.8,0,59.4,26.7,59.6,59.5c0.1,21.2-10.9,39.8-27.4,50.4l-18.5,9.3
					c16.5-10.6,27.5-29.1,27.4-50.4C288.5,64.8,261.9,38.2,229.1,38.2z"/>
			</g>
			<g>
				<path class="st4" d="M229.1,38.2c32.8,0,59.4,26.7,59.6,59.5c0.1,21.2-10.9,39.8-27.4,50.4l32.4,35.5H186.9l-0.2-44.9l-0.4-81.8
					l-0.1-18.6h6.4h6.4H229.1z"/>
			</g>
		</g>
		<g class="st0">
			<g>
				<polygon class="st4" points="356.5,38.2 375.1,28.9 375.9,174.2 357.3,183.5 				"/>
			</g>
			<g>
				<polygon class="st4" points="312.4,38.2 331,28.9 375.1,28.9 356.5,38.2 				"/>
			</g>
			<g>
				<polygon class="st4" points="356.5,38.2 357.3,183.5 313.2,183.5 312.4,38.2 				"/>
			</g>
		</g>
		<g class="st0">
			<g>
				<polygon class="st4" points="423.3,122.3 441.8,113 442.2,174.2 423.6,183.5 				"/>
			</g>
			<g>
				<polygon class="st4" points="374.7,38.2 393.3,28.9 410.3,28.9 391.7,38.2 				"/>
			</g>
			<g>
				<polygon class="st4" points="443.8,83.9 462.3,74.6 462.6,113 444,122.3 				"/>
			</g>
			<g>
				<polygon class="st4" points="391.7,38.2 410.3,28.9 441.4,28.9 422.8,38.2 				"/>
			</g>
			<g>
				<polygon class="st4" points="468.7,38.2 487.3,28.9 487.5,74.6 469,83.9 				"/>
			</g>
			<g>
				<polygon class="st4" points="422.8,38.2 441.4,28.9 487.3,28.9 468.7,38.2 				"/>
			</g>
			<g>
				<polygon class="st4" points="468.7,38.2 469,83.9 443.8,83.9 444,122.3 423.3,122.3 423.6,183.5 375.5,183.5 374.7,38.2 
					391.7,38.2 422.8,38.2 				"/>
			</g>
		</g>
		<g class="st0">
			<g>
				<polygon class="st4" points="527.1,122.3 545.6,113 546,174.2 527.4,183.5 				"/>
			</g>
			<g>
				<polygon class="st4" points="478.5,38.2 497,28.9 514.1,28.9 495.6,38.2 				"/>
			</g>
			<g>
				<polygon class="st4" points="547.6,83.9 566.1,74.6 566.3,113 547.8,122.3 				"/>
			</g>
			<g>
				<polygon class="st4" points="495.6,38.2 514.1,28.9 545.2,28.9 526.6,38.2 				"/>
			</g>
			<g>
				<polygon class="st4" points="572.5,38.2 591,28.9 591.3,74.6 572.7,83.9 				"/>
			</g>
			<g>
				<polygon class="st4" points="526.6,38.2 545.2,28.9 591,28.9 572.5,38.2 				"/>
			</g>
			<g>
				<polygon class="st4" points="572.5,38.2 572.7,83.9 547.6,83.9 547.8,122.3 527.1,122.3 527.4,183.5 479.3,183.5 478.5,38.2 
					495.6,38.2 526.6,38.2 				"/>
			</g>
		</g>
	</g>
	<g>
		<g class="st0">
			<g>
				<polygon class="st5" points="72.8,39.9 85.1,33.7 108,104.8 95.6,111 				"/>
			</g>
			<g>
				<path class="st5" d="M64,43.6l12.4-6.2c2.8-1.4,5.7-2.7,8.8-3.7l-12.4,6.2C69.7,40.9,66.8,42.2,64,43.6z"/>
			</g>
			<g>
				<path class="st5" d="M143.6,171.1l-12.4,6.2c32.2-16.1,48.6-53.9,37.2-89.5l12.4-6.2C192.2,117.2,175.8,155,143.6,171.1z"/>
			</g>
			<g>
				<polygon class="st5" points="95.6,111 108,104.8 180.8,81.6 168.4,87.8 				"/>
			</g>
			<g>
				<path class="st5" d="M72.8,39.9L95.6,111l72.8-23.2c12.6,39.3-8.8,81.4-47.9,93.9c-7.5,2.4-15.1,3.5-22.6,3.5
					c-31.6,0-61-20.3-71.2-52.2C14.3,94.3,34.9,53.1,72.8,39.9z"/>
			</g>
		</g>
		<g class="st0">
			<g>
				<polygon class="st5" points="182.7,39.9 195,33.7 201.4,33.7 189,39.9 				"/>
			</g>
			<g>
				<polygon class="st5" points="189,39.9 201.4,33.7 207.8,33.7 195.5,39.9 				"/>
			</g>
			<g>
				<polygon class="st5" points="257.8,149.7 270.2,143.5 302.6,179 290.3,185.2 				"/>
			</g>
			<g>
				<polygon class="st5" points="195.5,39.9 207.8,33.7 238,33.7 225.7,39.9 				"/>
			</g>
			<g>
				<path class="st5" d="M225.7,39.9l12.4-6.2c32.7,0,59.4,26.7,59.6,59.6c0.1,21.2-10.9,39.8-27.5,50.3l-12.4,6.2
					c16.6-10.5,27.6-29.1,27.5-50.3C285.1,66.5,258.4,39.9,225.7,39.9z"/>
			</g>
			<g>
				<path class="st5" d="M225.7,39.9c32.7,0,59.4,26.7,59.6,59.6c0.1,21.2-10.9,39.8-27.5,50.3l32.4,35.5H183.5l-0.2-44.9l-0.4-81.8
					l-0.1-18.6h6.4h6.4H225.7z"/>
			</g>
		</g>
		<g class="st0">
			<g>
				<polygon class="st5" points="353.1,39.9 365.4,33.7 366.2,179 353.9,185.2 				"/>
			</g>
			<g>
				<polygon class="st5" points="309,39.9 321.4,33.7 365.4,33.7 353.1,39.9 				"/>
			</g>
			<g>
				<polygon class="st5" points="353.1,39.9 353.9,185.2 309.8,185.2 309,39.9 				"/>
			</g>
		</g>
		<g class="st0">
			<g>
				<polygon class="st5" points="419.9,124.1 432.2,117.9 432.6,179 420.2,185.2 				"/>
			</g>
			<g>
				<polygon class="st5" points="371.3,39.9 383.6,33.7 400.7,33.7 388.3,39.9 				"/>
			</g>
			<g>
				<polygon class="st5" points="440.3,85.6 452.7,79.4 452.9,117.9 440.5,124.1 				"/>
			</g>
			<g>
				<polygon class="st5" points="388.3,39.9 400.7,33.7 431.8,33.7 419.4,39.9 				"/>
			</g>
			<g>
				<polygon class="st5" points="465.3,39.9 477.6,33.7 477.9,79.4 465.5,85.6 				"/>
			</g>
			<g>
				<polygon class="st5" points="419.4,39.9 431.8,33.7 477.6,33.7 465.3,39.9 				"/>
			</g>
			<g>
				<polygon class="st5" points="465.3,39.9 465.5,85.6 440.3,85.6 440.5,124.1 419.9,124.1 420.2,185.2 372.1,185.2 371.3,39.9 
					388.3,39.9 419.4,39.9 				"/>
			</g>
		</g>
		<g class="st0">
			<g>
				<polygon class="st5" points="523.6,124.1 536,117.9 536.3,179 524,185.2 				"/>
			</g>
			<g>
				<polygon class="st5" points="475.1,39.9 487.4,33.7 504.5,33.7 492.1,39.9 				"/>
			</g>
			<g>
				<polygon class="st5" points="544.1,85.6 556.5,79.4 556.7,117.9 544.3,124.1 				"/>
			</g>
			<g>
				<polygon class="st5" points="492.1,39.9 504.5,33.7 535.5,33.7 523.2,39.9 				"/>
			</g>
			<g>
				<polygon class="st5" points="569.1,39.9 581.4,33.7 581.7,79.4 569.3,85.6 				"/>
			</g>
			<g>
				<polygon class="st5" points="523.2,39.9 535.5,33.7 581.4,33.7 569.1,39.9 				"/>
			</g>
			<g>
				<polygon class="st5" points="569.1,39.9 569.3,85.6 544.1,85.6 544.3,124.1 523.6,124.1 524,185.2 475.9,185.2 475.1,39.9 
					492.1,39.9 523.2,39.9 				"/>
			</g>
		</g>
	</g>
	<g>
		<g class="st0">
			<g>
				<polygon points="70.5,41.1 76.7,38 99.6,109.2 93.4,112.3 				"/>
			</g>
			<g class="st0">
				<defs>
					<path id="SVGID_1_" class="st0" d="M61.7,44.8l6.2-3.1c2.8-1.4,5.7-2.7,8.8-3.7l-6.2,3.1C67.5,42.2,64.6,43.4,61.7,44.8z"/>
				</defs>
				<clipPath id="SVGID_2_">
					<use xlink:href="#SVGID_1_"  style="overflow:visible;"/>
				</clipPath>
				<g class="st6">
					<path d="M61.7,44.8l6.2-3.1c2.8-1.4,5.7-2.7,8.8-3.7l-6.2,3.1C67.5,42.2,64.6,43.4,61.7,44.8"/>
				</g>
			</g>
			<g class="st0">
				<defs>
					<path id="SVGID_3_" class="st0" d="M135.2,175.4l-6.2,3.1c32.2-16.1,48.6-53.9,37.2-89.5l6.2-3.1
						C183.8,121.5,167.3,159.3,135.2,175.4z"/>
				</defs>
				<clipPath id="SVGID_4_">
					<use xlink:href="#SVGID_3_"  style="overflow:visible;"/>
				</clipPath>
				<g class="st7">
					<path d="M166.2,89.1l6.2-3.1c0.2,0.6,0.4,1.2,0.6,1.8l-6.2,3.1C166.6,90.2,166.4,89.7,166.2,89.1"/>
					<path d="M166.7,90.8l6.2-3.1c1,3.4,1.7,6.8,2.3,10.2l-6.2,3.1C168.5,97.7,167.7,94.2,166.7,90.8"/>
					<path d="M169,101.1l6.2-3.1c0.4,2.9,0.7,5.8,0.8,8.7l-6.2,3.1C169.7,106.9,169.4,104,169,101.1"/>
					<path d="M169.8,109.8l6.2-3.1c0.1,2.7,0,5.5-0.2,8.2l-6.2,3.1C169.8,115.2,169.8,112.5,169.8,109.8"/>
					<path d="M169.6,117.9l6.2-3.1c-0.2,2.7-0.6,5.4-1.1,8l-6.2,3.1C169,123.3,169.4,120.6,169.6,117.9"/>
					<path d="M168.5,125.9l6.2-3.1c-0.5,2.7-1.2,5.4-2,8.1l-6.2,3.1C167.3,131.4,168,128.7,168.5,125.9"/>
					<path d="M166.5,134l6.2-3.1c-0.9,2.9-2,5.8-3.2,8.6l-6.2,3.1C164.5,139.8,165.6,136.9,166.5,134"/>
					<path d="M163.3,142.6l6.2-3.1c-1.5,3.4-3.3,6.7-5.3,9.8l-6.2,3.1C160,149.3,161.7,146,163.3,142.6"/>
					<path d="M158,152.4l6.2-3.1c-7,10.9-16.9,20.1-29,26.1l-6.2,3.1C141.1,172.5,151,163.3,158,152.4"/>
				</g>
			</g>
			<g>
				<polygon points="93.4,112.3 99.6,109.2 172.4,86 166.2,89.1 				"/>
			</g>
			<g>
				<path d="M70.5,41.1l22.9,71.2l72.8-23.2c12.6,39.3-8.8,81.4-47.9,93.9c-7.5,2.4-15,3.5-22.5,3.5c-31.6,0-61-20.3-71.2-52.2
					C12,95.5,32.7,54.3,70.5,41.1z"/>
			</g>
		</g>
		<g class="st0">
			<g>
				<polygon points="180.4,41.1 186.6,38 193,38 186.8,41.1 				"/>
			</g>
			<g>
				<polygon points="186.8,41.1 193,38 199.4,38 193.2,41.1 				"/>
			</g>
			<g>
				<polygon points="255.6,151 261.8,147.9 294.2,183.3 288,186.4 				"/>
			</g>
			<g>
				<polygon points="193.2,41.1 199.4,38 229.6,38 223.4,41.1 				"/>
			</g>
			<g class="st0">
				<defs>
					<path id="SVGID_5_" class="st0" d="M223.4,41.1l6.2-3.1c32.7,0,59.4,26.7,59.6,59.5c0.1,21.2-10.9,39.8-27.5,50.4l-6.2,3.1
						c16.6-10.5,27.6-29.1,27.5-50.4C282.9,67.8,256.2,41.1,223.4,41.1z"/>
				</defs>
				<clipPath id="SVGID_6_">
					<use xlink:href="#SVGID_5_"  style="overflow:visible;"/>
				</clipPath>
				<g class="st8">
					<path d="M223.4,41.1l6.2-3.1c1.1,0,2.1,0,3.2,0.1l-6.2,3.1C225.6,41.1,224.5,41.1,223.4,41.1"/>
					<path d="M226.7,41.2l6.2-3.1c2.2,0.1,4.3,0.3,6.4,0.7l-6.2,3.1C230.9,41.5,228.8,41.3,226.7,41.2"/>
					<path d="M233,41.9l6.2-3.1c2.2,0.4,4.3,0.8,6.3,1.4l-6.2,3.1C237.3,42.7,235.2,42.2,233,41.9"/>
					<path d="M239.4,43.3l6.2-3.1c2.2,0.6,4.4,1.4,6.6,2.3l-6.2,3.1C243.8,44.6,241.6,43.9,239.4,43.3"/>
					<path d="M245.9,45.5l6.2-3.1c2.5,1,5,2.3,7.4,3.6l-6.2,3.1C251,47.8,248.5,46.6,245.9,45.5"/>
					<path d="M253.3,49.2l6.2-3.1c3.6,2.1,6.9,4.5,10,7.3l-6.2,3.1C260.2,53.7,256.9,51.3,253.3,49.2"/>
					<path d="M263.3,56.5l6.2-3.1c5.1,4.7,9.5,10.2,12.8,16.4l-6.2,3.1C272.7,66.6,268.4,61.1,263.3,56.5"/>
					<path d="M276,72.8l6.2-3.1c1.9,3.5,3.4,7.3,4.6,11.2l-6.2,3.1C279.5,80.1,277.9,76.4,276,72.8"/>
					<path d="M280.6,84l6.2-3.1c0.8,2.6,1.4,5.3,1.8,8l-6.2,3.1C282,89.3,281.4,86.6,280.6,84"/>
					<path d="M282.4,92l6.2-3.1c0.3,2.3,0.6,4.7,0.6,7l-6.2,3.1C282.9,96.7,282.7,94.3,282.4,92"/>
					<path d="M283,99.1l6.2-3.1c0,0.5,0,1,0,1.5c0,1.7-0.1,3.4-0.2,5.1l-6.2,3.1c0.1-1.7,0.2-3.4,0.2-5.1
						C283,100.1,283,99.6,283,99.1"/>
					<path d="M282.9,105.7l6.2-3.1c-0.2,2.2-0.5,4.3-0.8,6.4l-6.2,3.1C282.4,110,282.7,107.9,282.9,105.7"/>
					<path d="M282,112.1l6.2-3.1c-0.4,2.2-0.9,4.3-1.6,6.4l-6.2,3.1C281.1,116.4,281.6,114.2,282,112.1"/>
					<path d="M280.4,118.4l6.2-3.1c-0.7,2.3-1.6,4.5-2.5,6.7l-6.2,3.1C278.9,123,279.7,120.7,280.4,118.4"/>
					<path d="M277.9,125.2l6.2-3.1c-1.2,2.7-2.6,5.3-4.2,7.7l-6.2,3.1C275.3,130.4,276.7,127.8,277.9,125.2"/>
					<path d="M273.7,132.9l6.2-3.1c-4.7,7.3-10.9,13.5-18.2,18.1l-6.2,3.1C262.9,146.3,269.1,140.1,273.7,132.9"/>
				</g>
			</g>
			<g>
				<path d="M223.4,41.1c32.7,0,59.4,26.7,59.6,59.5c0.1,21.2-10.9,39.8-27.5,50.4l32.4,35.5H181.2l-0.2-44.9l-0.4-81.8l-0.1-18.6
					h6.4h6.4H223.4z"/>
			</g>
		</g>
		<g class="st0">
			<g>
				<polygon points="350.8,41.1 357,38 357.8,183.3 351.6,186.4 				"/>
			</g>
			<g>
				<polygon points="306.8,41.1 313,38 357,38 350.8,41.1 				"/>
			</g>
			<g>
				<polygon points="350.8,41.1 351.6,186.4 307.6,186.4 306.8,41.1 				"/>
			</g>
		</g>
		<g class="st0">
			<g>
				<polygon points="417.6,125.3 423.8,122.2 424.1,183.3 418,186.4 				"/>
			</g>
			<g>
				<polygon points="369,41.1 375.2,38 392.3,38 386.1,41.1 				"/>
			</g>
			<g>
				<polygon points="438.1,86.9 444.3,83.8 444.5,122.2 438.3,125.3 				"/>
			</g>
			<g>
				<polygon points="386.1,41.1 392.3,38 423.3,38 417.2,41.1 				"/>
			</g>
			<g>
				<polygon points="463,41.1 469.2,38 469.5,83.8 463.3,86.9 				"/>
			</g>
			<g>
				<polygon points="417.2,41.1 423.3,38 469.2,38 463,41.1 				"/>
			</g>
			<g>
				<polygon points="463,41.1 463.3,86.9 438.1,86.9 438.3,125.3 417.6,125.3 418,186.4 369.8,186.4 369,41.1 386.1,41.1 
					417.2,41.1 				"/>
			</g>
		</g>
		<g class="st0">
			<g>
				<polygon points="521.4,125.3 527.6,122.2 527.9,183.3 521.7,186.4 				"/>
			</g>
			<g>
				<polygon points="472.8,41.1 479,38 496,38 489.9,41.1 				"/>
			</g>
			<g>
				<polygon points="541.8,86.9 548,83.8 548.2,122.2 542.1,125.3 				"/>
			</g>
			<g>
				<polygon points="489.9,41.1 496,38 527.1,38 520.9,41.1 				"/>
			</g>
			<g>
				<polygon points="566.8,41.1 573,38 573.2,83.8 567,86.9 				"/>
			</g>
			<g>
				<polygon points="520.9,41.1 527.1,38 573,38 566.8,41.1 				"/>
			</g>
			<g>
				<polygon points="566.8,41.1 567,86.9 541.8,86.9 542.1,125.3 521.4,125.3 521.7,186.4 473.6,186.4 472.8,41.1 489.9,41.1 
					520.9,41.1 				"/>
			</g>
		</g>
	</g>
</g>
</svg>
