<?xml version="1.0" encoding="utf-8"?>
<!-- Generator: Adobe Illustrator 25.2.3, SVG Export Plug-In . SVG Version: 6.00 Build 0)  -->
<svg version="1.1" id="Ebene_1" xmlns="http://www.w3.org/2000/svg" xmlns:xlink="http://www.w3.org/1999/xlink" x="0px" y="0px"
	 viewBox="0 0 650 200" style="enable-background:new 0 0 650 200;" xml:space="preserve">
<g>
	<path d="M69.4,18.4C26.6,33.3,3.1,79.7,16.9,123.2c14,44.3,61.3,68.7,105.5,54.7c44.3-14,68.7-61.3,54.7-105.5L94.8,98.5L69.4,18.4
		z"/>
	<path d="M277.7,142c18.8-11.9,31.3-32.7,31.3-56.6c0-37-30-66.9-66.9-66.9H208h-7.2h-7.2v20.9v92v50.5h120.6L277.7,142z"/>
	<rect x="336.2" y="18.4" width="49.8" height="163.4"/>
	<polygon points="512.6,18.4 460.8,18.4 425.7,18.4 406.5,18.4 406.5,181.9 460.8,181.9 460.8,113.1 484.2,113.1 484.2,69.9 
		512.6,69.9 	"/>
	<polygon points="629.8,18.4 578,18.4 542.9,18.4 523.7,18.4 523.7,181.9 578,181.9 578,113.1 601.3,113.1 601.3,69.9 629.8,69.9 	
		"/>
</g>
</svg>
